<svg width="50" height="51" viewBox="0 0 50 51" xmlns="http://www.w3.org/2000/svg">
<path d="M20.8359 11.6295C20.8359 13.9451 22.6878 15.7976 25.0026 15.7976C27.3174 15.7976 29.1693 13.9451 29.1693 11.6295C29.1693 9.31392 27.3174 7.46143 25.0026 7.46143C22.6878 7.46143 20.8359 9.31392 20.8359 11.6295ZM27.7804 11.6295C27.7804 13.1578 26.5304 14.4083 25.0026 14.4083C23.4748 14.4083 22.2248 13.1578 22.2248 11.6295C22.2248 10.1012 23.4748 8.85079 25.0026 8.85079C26.5304 8.85079 27.7804 10.1012 27.7804 11.6295Z"/>
<path d="M49.3056 20.4288C49.6759 20.4288 50 20.1046 50 19.7341V15.1029C50 14.8713 49.8611 14.6397 49.6759 14.5008L27.037 1.07026C25.7407 0.329262 24.3056 0.375574 23.0093 1.07026L0.37037 14.5008C0.138889 14.6397 0 14.8713 0 15.1029V19.7341C0 20.1046 0.324074 20.4288 0.694444 20.4288H4.62963V42.1955H4.16667C1.85185 42.1955 0 44.048 0 46.3636V49.8371C0 50.2076 0.324074 50.5317 0.694444 50.5317H49.3056C49.6759 50.5317 50 50.2076 50 49.8371V46.3636C50 44.048 48.1481 42.1955 45.8333 42.1955H45.3704V20.4288H49.3056ZM45.8333 43.5849C47.3611 43.5849 48.6111 44.8353 48.6111 46.3636V49.1424H1.38889V46.3636C1.38889 44.8353 2.63889 43.5849 4.16667 43.5849H45.8333ZM6.01852 42.1955V20.4288H11.5741V42.1955H6.01852ZM12.963 42.1955V20.4288H20.8333V42.1955H12.963ZM22.2222 42.1955V20.4288H27.7778V42.1955H22.2222ZM29.1667 42.1955V20.4288H37.037V42.1955H29.1667ZM38.4259 42.1955V20.4288H43.9815V42.1955H38.4259ZM1.38889 19.0394V15.4734L23.6574 2.22806C24.537 1.76494 25.463 1.76494 26.3426 2.22806L48.6111 15.4734V19.0394H1.38889Z"/>
</svg>
