<svg width="50" height="51" viewBox="0 0 50 51" xmlns="http://www.w3.org/2000/svg">
<g clip-path="url(#clip0_2_386)">
<path d="M38.128 39.9762C37.7806 39.9762 37.52 40.254 37.52 40.6243V47.9391C37.52 48.6799 36.9555 49.2817 36.2607 49.2817H2.47528C1.78046 49.2817 1.21593 48.6799 1.21593 47.9391V3.17063C1.21593 2.42989 1.78046 1.82803 2.47528 1.82803H36.2607C36.9555 1.82803 37.52 2.42989 37.52 3.17063V13.9577C37.52 14.328 37.7806 14.6058 38.128 14.6058C38.4754 14.6058 38.7359 14.328 38.7359 13.9577V3.17063C38.7359 1.73544 37.6503 0.531738 36.2607 0.531738H2.47528C1.08565 0.531738 0 1.68915 0 3.17063V47.8928C0 49.328 1.08565 50.5317 2.47528 50.5317H36.2607C37.6069 50.5317 38.7359 49.3743 38.7359 47.8928V40.6243C38.7359 40.254 38.4754 39.9762 38.128 39.9762Z"/>
<path d="M19.3638 5.85596C14.8475 5.85596 11.1562 9.79114 11.1562 14.606C11.1562 17.0597 12.0682 19.2819 13.7184 20.9948C13.7618 21.0411 13.7618 21.0411 13.8052 21.0874C15.3251 22.5689 17.3227 23.4023 19.3638 23.4023C21.4048 23.4023 23.4024 22.5689 24.9223 21.0874C24.9657 21.0411 24.9657 21.0411 25.0091 20.9948C26.7027 19.3282 27.6147 17.0597 27.6147 14.606C27.5713 9.79114 23.88 5.85596 19.3638 5.85596ZM23.5761 20.5782C22.3601 21.5504 20.8837 22.106 19.3638 22.106C17.8438 22.106 16.3674 21.5967 15.1514 20.5782L14.9343 20.393L15.0646 20.1152C15.9331 18.4485 17.5833 17.43 19.3638 17.43C21.1442 17.43 22.7944 18.4485 23.6629 20.1152L23.7932 20.393L23.5761 20.5782ZM17.5399 14.2356V13.5874C17.5399 12.5226 18.365 11.643 19.3638 11.643C20.3625 11.643 21.1876 12.5226 21.1876 13.5874V14.2356C21.1876 15.3004 20.3625 16.18 19.3638 16.18C18.365 16.18 17.5399 15.3004 17.5399 14.2356ZM24.7486 19.4671L24.488 19.0504C23.8366 18.0319 22.9247 17.2448 21.8825 16.7356L21.4916 16.5504L21.7522 16.2263C22.1864 15.6708 22.4036 14.9763 22.4036 14.2356V13.5874C22.4036 11.8282 21.0574 10.3467 19.3638 10.3467C17.7136 10.3467 16.3239 11.7819 16.3239 13.5874V14.2356C16.3239 14.9763 16.5411 15.6245 16.9753 16.2263L17.2359 16.5504L16.845 16.7356C15.8028 17.2448 14.8909 18.0319 14.2395 19.0504L13.9789 19.4671L13.7184 19.0504C12.8064 17.7541 12.3722 16.2263 12.3722 14.606C12.3722 10.4856 15.4988 7.15225 19.3638 7.15225C23.2287 7.15225 26.3553 10.4856 26.3553 14.606C26.3553 16.2263 25.8776 17.7541 24.9657 19.0504L24.7486 19.4671Z"/>
<path d="M24.3598 43.8638H19.3658C19.0184 43.8638 18.7578 44.1415 18.7578 44.5119C18.7578 44.8823 19.0184 45.1601 19.3658 45.1601H24.3598C24.7072 45.1601 24.9677 44.8823 24.9677 44.5119C24.9677 44.1878 24.7072 43.8638 24.3598 43.8638Z"/>
<path d="M24.3598 38.356H11.2017C10.8543 38.356 10.5938 38.6337 10.5938 39.0041C10.5938 39.3745 10.8543 39.6523 11.2017 39.6523H24.4032C24.7506 39.6523 25.0112 39.3745 25.0112 39.0041C25.0112 38.6337 24.7072 38.356 24.3598 38.356Z"/>
<path d="M24.3598 32.8013H11.2017C10.8543 32.8013 10.5938 33.079 10.5938 33.4494C10.5938 33.8198 10.8543 34.0976 11.2017 34.0976H24.4032C24.7506 34.0976 25.0112 33.8198 25.0112 33.4494C24.9677 33.079 24.7072 32.8013 24.3598 32.8013Z"/>
<path d="M7.64378 27.4298C7.51351 27.2909 7.38323 27.2446 7.20952 27.2446C7.03582 27.2446 6.90554 27.2909 6.77527 27.4298C6.64499 27.5687 6.60156 27.7076 6.60156 27.8928C6.60156 28.078 6.64499 28.2168 6.77527 28.3557C6.9924 28.5872 7.42665 28.5872 7.64378 28.3557C7.77406 28.2168 7.81749 28.078 7.81749 27.8928C7.86091 27.7539 7.77406 27.5687 7.64378 27.4298Z"/>
<path d="M7.64379 32.9865C7.51351 32.8476 7.38323 32.8013 7.20953 32.8013C7.03582 32.8013 6.90554 32.8939 6.77527 32.9865C6.64499 33.1253 6.60156 33.2642 6.60156 33.4494C6.60156 33.6346 6.68841 33.7735 6.77527 33.9124C6.9924 34.1439 7.42666 34.1439 7.64379 33.9124C7.77406 33.7735 7.81749 33.6346 7.81749 33.4494C7.81749 33.2642 7.77406 33.1253 7.64379 32.9865Z"/>
<path d="M7.20953 38.356C7.03582 38.356 6.90554 38.4023 6.77527 38.5411C6.64499 38.68 6.60156 38.8189 6.60156 39.0041C6.60156 39.1893 6.64499 39.3282 6.77527 39.4671C6.86212 39.5597 7.03582 39.6523 7.20953 39.6523C7.38323 39.6523 7.51351 39.606 7.64379 39.4671C7.77406 39.3282 7.81749 39.1893 7.81749 39.0041C7.81749 38.8189 7.73064 38.68 7.64379 38.5411C7.55693 38.4023 7.38323 38.356 7.20953 38.356Z"/>
<path d="M24.3598 27.2446H11.2017C10.8543 27.2446 10.5938 27.5224 10.5938 27.8928C10.5938 28.2631 10.8543 28.5409 11.2017 28.5409H24.4032C24.7506 28.5409 25.0112 28.2631 25.0112 27.8928C25.0112 27.5224 24.7072 27.2446 24.3598 27.2446Z"/>
<path d="M46.7685 15.7171C46.508 14.7449 45.9434 13.9116 45.1183 13.4023C44.5538 13.0783 43.9458 12.8931 43.3379 12.8931C43.0339 12.8931 42.7299 12.9394 42.4259 13.032C41.514 13.3097 40.7323 13.9116 40.2546 14.7912L28.5296 36.3653C28.4862 36.4579 28.4428 36.5505 28.4428 36.5968L27.6177 44.4671C27.5743 44.7449 27.7045 44.9764 27.9217 45.1153C28.1388 45.2542 28.3994 45.2079 28.5731 45.069L34.5224 40.3931C34.6093 40.3468 34.6527 40.2542 34.6961 40.2079L46.4211 18.5875C46.8988 17.7079 47.0291 16.6894 46.7685 15.7171ZM33.0459 39.9301L29.0073 43.1245V43.032L29.5719 37.7079L29.6153 37.7542L33.0459 39.9301ZM43.6419 21.0875L34.0013 38.9579H33.9579L29.8758 36.4579V36.4116L39.5598 18.5412H39.6032L43.6419 21.0875ZM45.3789 17.9394L44.2932 19.9301H44.2498L40.1678 17.4301L41.2534 15.4394C41.5574 14.8375 42.0785 14.4208 42.6865 14.282C43.2945 14.0968 43.9458 14.1894 44.467 14.5134C45.0315 14.8375 45.4223 15.3931 45.5526 16.0412C45.7697 16.6894 45.6829 17.3838 45.3789 17.9394Z"/>
</g>
<defs>
<clipPath id="clip0_2_386">
<rect width="50" height="50" transform="translate(0 0.531738)"/>
</clipPath>
</defs>
</svg>
