<svg width="50" height="51" viewBox="0 0 50 51" xmlns="http://www.w3.org/2000/svg">
<g clip-path="url(#clip0_2_408)">
<path d="M25 0.531738C11.2207 0.531738 0 11.7524 0 25.5317C0 39.3111 11.2207 50.5317 25 50.5317C38.7793 50.5317 50 39.3111 50 25.5317C50 11.7524 38.806 0.531738 25 0.531738ZM25 49.2524C11.9403 49.2524 1.30597 38.6181 1.30597 25.5584C1.30597 12.4987 11.9403 1.83771 25 1.83771C38.0597 1.83771 48.694 12.472 48.694 25.5317C48.694 38.5914 38.0864 49.2524 25 49.2524Z"/>
<path d="M25.0022 22.6528C24.6291 22.6528 24.3359 22.946 24.3359 23.3191V36.6187C24.3359 36.9918 24.6291 37.285 25.0022 37.285C25.3754 37.285 25.6686 36.9918 25.6686 36.6187V23.2925C25.6686 22.946 25.3754 22.6528 25.0022 22.6528Z"/>
<path d="M25.0031 14.5513C24.2302 14.5513 23.6172 15.1643 23.6172 15.9372C23.6172 16.7101 24.2302 17.3231 25.0031 17.3231C25.7494 17.3231 26.389 16.7101 26.389 15.9372C26.389 15.1643 25.776 14.5513 25.0031 14.5513Z"/>
</g>
<defs>
<clipPath id="clip0_2_408">
<rect width="50" height="50" transform="translate(0 0.531738)"/>
</clipPath>
</defs>
</svg>
