<svg width="54" height="51" viewBox="0 0 54 51"  xmlns="http://www.w3.org/2000/svg">
<g clip-path="url(#clip0_2_416)">
<path d="M53.2783 49.5994C53.1716 48.8535 53.145 48.1343 53.145 47.5749V47.3884C53.065 40.4358 52.2388 32.3911 50.613 31.8317C48.694 31.1391 46.8017 30.3399 45.3358 29.7006C45.1226 29.6207 44.9094 29.4076 44.6962 29.1945C44.5362 29.0347 44.3497 28.8748 44.1631 28.7416C43.8166 28.5019 43.4968 28.3421 43.177 28.2888C42.564 28.1822 42.5107 28.0757 42.4041 27.6761C42.1642 26.6639 42.0309 25.8114 42.1908 24.9857C42.1908 24.959 42.2175 24.9324 42.2175 24.9057V24.8791C42.2175 24.8525 42.2441 24.8258 42.2441 24.7992L42.2708 24.7725L42.3241 24.7193C42.3507 24.6926 42.3774 24.6926 42.4307 24.666L42.5107 24.6394C42.5373 24.6394 42.5906 24.6127 42.6173 24.6127C43.0704 24.4529 43.7633 24.2931 44.403 24.1599C45.2026 23.9734 45.9222 23.7869 46.4552 23.6271L46.5352 23.6005C46.6151 23.5738 46.6951 23.5472 46.7751 23.5205C47.2015 23.3607 47.6013 23.121 47.7878 22.6415C47.9744 22.162 47.8412 21.6559 47.6812 21.2563C46.7751 18.8056 46.2687 16.6745 46.1087 14.5701C46.0821 14.1172 46.0554 13.6378 46.0288 13.2382C45.9755 11.853 45.8955 10.3879 45.3358 8.97606L45.3092 8.92279C44.9094 7.85726 43.8166 5.06024 40.3785 4.55411C39.5522 4.36765 38.5128 4.42092 37.1802 4.74058H36.9669C36.8603 4.74058 36.7804 4.74058 36.7004 4.74058C31.4232 4.02135 29.5043 8.12364 29.1844 8.97606C28.6247 10.3879 28.5714 11.8264 28.5181 13.2382V13.2915C28.4915 13.7177 28.4915 14.1705 28.4382 14.5701C28.2516 16.6745 27.7719 18.8056 26.8657 21.2563C26.7058 21.6825 26.5725 22.162 26.7591 22.6415C26.9456 23.121 27.3721 23.3341 27.7719 23.5205C28.3049 23.7337 29.2111 23.9468 30.0906 24.1599L30.1439 24.1865C30.8902 24.373 31.6631 24.5328 32.0896 24.6926C32.2761 24.7459 32.3028 24.7992 32.3561 25.0656C32.5426 25.918 32.4094 26.7438 32.1429 27.756C32.0362 28.129 31.9829 28.2622 31.3699 28.3687C31.0501 28.422 30.7303 28.5552 30.3838 28.8216C30.1972 28.9548 30.0373 29.1146 29.8507 29.2744L29.8241 29.3011C29.6109 29.5142 29.3977 29.7006 29.1844 29.8072C28.9979 29.8871 28.8113 29.967 28.6247 30.0469C24.5469 28.3154 23.3209 26.8503 23.3209 23.8402C23.3209 23.5738 23.3475 23.3607 23.4009 23.1743C23.4808 22.9345 23.6407 22.748 23.8539 22.4817C24.3603 21.8423 25.0533 20.9633 25.4531 18.5925C25.5064 18.3527 25.5064 18.3527 25.7463 18.2195C26.4925 17.82 27.1322 17.2872 27.3188 14.7566V14.7033C27.3188 13.5845 26.9723 12.9185 26.6525 12.5456C26.7591 11.8796 26.9989 10.308 27.1055 9.02934C27.2388 7.5376 26.7324 5.24671 25.3198 3.51522C23.8273 1.49072 21.5352 0.531738 18.5501 0.531738H18.4701H18.3902C15.4051 0.531738 13.113 1.49072 11.5672 3.40867C10.1546 5.14016 9.64819 7.43105 9.78145 8.92279C9.88806 10.2014 10.1279 11.7731 10.2345 12.439C9.91471 12.812 9.56823 13.4779 9.56823 14.5967V14.65C9.72815 17.154 10.3678 17.6868 11.1407 18.0863C11.3806 18.2195 11.3806 18.2195 11.4339 18.4593C11.8337 20.8034 12.5267 21.7091 13.033 22.3485C13.2463 22.6148 13.3795 22.8013 13.4861 23.0411C13.5394 23.2009 13.5661 23.4406 13.5661 23.707C13.5661 26.877 12.2335 28.3154 7.5693 30.2068C2.6919 32.178 0 34.3623 0 36.3335V50.5317H53.4382L53.2783 49.5994ZM35.5277 48.9601H1.41258V36.3335C1.41258 36.2803 1.41258 36.2004 1.43923 36.1204C1.73241 35.1082 3.89126 33.3501 8.04904 31.6719C10.7409 30.5797 12.3401 29.6207 13.3795 28.4753C13.9659 27.8093 14.3923 27.0901 14.6322 26.2643C14.8454 25.5184 14.9787 24.6926 14.9787 23.7337C14.9787 23.3341 14.9254 22.9878 14.8454 22.6681C14.8454 22.6148 14.8188 22.5616 14.7921 22.5349C14.6322 22.0288 14.3657 21.7091 14.0991 21.3895C14.0458 21.3362 14.0192 21.2829 13.9659 21.2297C13.6727 20.8567 13.3529 20.3772 13.0864 19.4715C12.9797 19.0986 12.8731 18.699 12.8198 18.2462C12.7932 18.1396 12.7665 18.0064 12.7399 17.8999C12.5267 17.154 12.0736 16.9143 11.7537 16.7544C11.5405 16.6479 11.3273 16.5413 11.194 15.9819C11.0874 15.6623 11.0341 15.2094 10.9808 14.6234C10.9808 14.357 11.0075 14.1172 11.0608 13.9308C11.1407 13.6378 11.274 13.5312 11.3006 13.5046L11.7804 13.2915L11.6738 12.6521C11.6738 12.6255 11.3006 10.4678 11.1674 8.84287C11.1407 8.41666 11.1674 7.85726 11.274 7.32449C11.3006 7.1913 11.3273 7.05811 11.3539 6.95156C11.3806 6.87164 11.4073 6.79173 11.4339 6.68517C11.6738 5.85939 12.0736 5.14016 12.58 4.50084C13.8593 2.92918 15.7783 2.13003 18.3369 2.13003H18.4435H18.5235C18.6834 2.13003 18.8433 2.13003 19.0032 2.13003C21.322 2.20995 23.1077 3.0091 24.2804 4.4742C24.7868 5.11352 25.1866 5.83275 25.4264 6.65854C25.7729 7.7507 25.7196 8.57649 25.693 8.81623C25.5864 10.2014 25.2932 11.9595 25.2132 12.4923V12.519V12.5989L25.08 13.2382L25.5864 13.4513C25.6397 13.4779 25.7463 13.6111 25.8262 13.8775C25.8795 14.064 25.9062 14.3037 25.9062 14.5701C25.8529 15.1561 25.7996 15.609 25.693 15.9553C25.5331 16.4881 25.3465 16.5946 25.1066 16.7278C25.0267 16.7811 24.9467 16.8077 24.8401 16.8876C24.5736 17.0741 24.2804 17.3405 24.1205 17.8999C24.0938 18.0064 24.0672 18.113 24.0405 18.2462C23.9606 18.699 23.8806 19.1252 23.774 19.4715C23.5075 20.3772 23.1876 20.8301 22.8945 21.2297C22.8412 21.2829 22.8145 21.3362 22.7612 21.3895C22.4947 21.7358 22.2281 22.0554 22.0682 22.5349C22.1215 22.5349 22.1215 22.5882 22.0949 22.6415C21.9883 22.9611 21.9616 23.3074 21.9616 23.7337C21.9616 24.7193 22.0682 25.5451 22.3081 26.2643C22.5746 27.0901 22.9744 27.8359 23.5608 28.4753C24.2537 29.2478 25.2132 29.9404 26.5458 30.6063H26.5192L27.0522 30.8727C27.532 31.1125 28.065 31.3522 28.678 31.5919L28.758 31.6186C28.7846 31.6186 28.8113 31.6452 28.8113 31.6452L28.8646 31.6719C30.2505 32.2313 31.3966 32.7907 32.3561 33.3501C34.2751 34.4422 35.2878 35.4545 35.5011 36.1204C35.5277 36.2004 35.5277 36.2536 35.5277 36.3335V48.9601ZM36.9403 48.9601V36.3335C36.9403 34.4955 34.7015 32.5509 30.4904 30.6862C30.597 30.6063 30.7036 30.4998 30.8102 30.3932L30.8369 30.3666C30.9701 30.2334 31.1034 30.1268 31.2367 30.0203C31.3699 29.9137 31.5299 29.8338 31.6098 29.8338C32.436 29.7006 33.2356 29.4076 33.5554 28.1023C33.822 27.0368 34.0352 25.8647 33.7687 24.6394C33.662 24.1599 33.4222 23.4673 32.5693 23.1476C32.0896 22.9611 31.3166 22.7747 30.4904 22.5882H30.4371C29.6109 22.4017 28.7313 22.1886 28.2783 22.0022C28.2249 21.9755 28.1716 21.9489 28.145 21.9489C28.145 21.8956 28.1716 21.869 28.1983 21.7891C29.1311 19.2318 29.6908 16.8876 29.8774 14.6766C29.9041 14.2238 29.9307 13.7709 29.9574 13.2648C30.0107 11.9595 30.064 10.7076 30.5171 9.56211C30.5171 9.53547 30.5437 9.50883 30.5437 9.45555C30.8635 8.70968 32.1429 6.23232 35.4478 6.17905C35.7942 6.17905 36.194 6.20569 36.5938 6.25896H36.6471H36.7004C36.7804 6.25896 36.9136 6.25896 37.0203 6.25896H37.1535C37.2068 6.25896 37.2601 6.25896 37.2868 6.25896H37.3401L37.42 6.23232C38.5661 5.9393 39.4456 5.88603 40.0853 6.01922H40.1386C42.7772 6.41879 43.5768 8.46994 43.9765 9.45555L44.0032 9.50883C44.4563 10.6543 44.5096 11.9063 44.5629 13.2115V13.2648C44.5896 13.7177 44.5896 14.1705 44.6429 14.6234C44.6429 14.7566 44.6695 14.8898 44.6695 15.0496C44.8827 17.154 45.4158 19.3383 46.2953 21.7624C46.322 21.8157 46.322 21.869 46.3486 21.9223C46.2953 21.9489 46.2687 21.9489 46.2154 21.9755C46.162 22.0022 46.0821 22.0288 46.0288 22.0554L45.9755 22.0821C45.4691 22.2419 44.7228 22.4284 44.0299 22.5882C43.3635 22.748 42.6439 22.9079 42.1375 23.0677L42.0576 23.0943C42.0309 23.0943 41.9776 23.121 41.951 23.121H41.9243C41.8977 23.121 41.871 23.1476 41.871 23.1476C41.7377 23.2009 41.6311 23.2542 41.5245 23.3341C41.4179 23.3874 41.3646 23.4673 41.338 23.4939L41.3113 23.5205C41.258 23.5738 41.2313 23.6005 41.178 23.6537C41.1247 23.7337 41.0448 23.8136 40.9915 23.8935C40.9915 23.9201 40.9648 23.9201 40.9648 23.9468L40.9115 24.0267C40.8582 24.1332 40.8049 24.2398 40.7783 24.3197C40.7516 24.3996 40.7249 24.5062 40.6983 24.6394C40.4318 25.8647 40.645 27.0368 40.9115 28.1023C41.2313 29.4076 42.0309 29.7273 42.8571 29.8338C42.9371 29.8605 43.097 29.9137 43.2303 30.0203C43.3635 30.1268 43.4968 30.2334 43.6567 30.3666C43.9232 30.6063 44.2697 30.926 44.6962 31.1125C46.162 31.7518 48.081 32.5776 50.0533 33.2701C50.7196 33.5099 51.5192 39.7432 51.5991 47.3085V47.5749C51.5991 47.9478 51.5991 48.4273 51.6525 48.9334H36.9403V48.9601Z"/>
</g>
<defs>
<clipPath id="clip0_2_416">
<rect width="53.4382" height="50" transform="translate(0 0.531738)"/>
</clipPath>
</defs>
</svg>
