<svg width="50" height="51" viewBox="0 0 50 51" xmlns="http://www.w3.org/2000/svg">
<g clip-path="url(#clip0_2_422)">
<path d="M48.8889 16.504C47.4074 15.0225 45.0463 15.0225 43.5648 16.504L37.7315 22.3373V8.58729C37.7315 7.56878 37.3611 6.64285 36.6204 5.90211L32.3611 1.64285C31.6204 0.902109 30.6944 0.531738 29.6759 0.531738H3.75C1.71296 0.531738 0 2.2447 0 4.28174V46.7354C0 48.8188 1.71296 50.4854 3.75 50.4854H33.9352C36.0185 50.4854 37.6852 48.7725 37.6852 46.7354V33.0317L48.8426 21.8743C49.537 21.1799 49.9537 20.2077 49.9537 19.1891C50 18.1706 49.6296 17.2447 48.8889 16.504ZM28.6574 2.05952H29.4907C29.8148 2.05952 30.6019 2.05952 31.2963 2.70766L35.5556 6.96692C36.25 7.66137 36.2037 8.40211 36.2037 8.77248V9.60581H28.6574V2.05952ZM36.2037 46.7817C36.2037 48.0317 35.1852 49.0503 33.9352 49.0503H3.75C2.5 49.0503 1.48148 48.0317 1.48148 46.7817V4.28174C1.48148 3.03174 2.5 2.01322 3.75 2.01322H27.1296V10.3003C27.1296 10.7169 27.4537 11.041 27.8704 11.041H36.1574V23.8188L35.9259 24.0503C32.7315 27.2447 31.7593 28.2169 31.4815 28.4947L29.3519 30.6243C29.2593 30.7169 29.213 30.8095 29.1667 30.9021L27.037 37.291C26.9444 37.5688 27.037 37.8466 27.2222 38.078C27.4074 38.2632 27.7315 38.3558 28.0093 38.2632L34.4444 36.1799C34.537 36.1336 34.6759 36.0873 34.7222 35.9947L36.2037 34.5132V46.7817ZM32.0833 30.1614L35.2778 33.3558L33.7963 34.8373L28.9815 36.4577L30.6019 31.6428L32.0833 30.1614ZM36.3426 32.291L33.1481 29.0966L41.4815 20.7632L44.6759 23.9577L36.3426 32.291ZM47.8241 20.8095L45.7407 22.8928L42.5463 19.6984L44.6296 17.6151C45.5093 16.7354 46.9444 16.7354 47.8241 17.6151C48.7037 18.4484 48.7037 19.9299 47.8241 20.8095Z" />
<path d="M6.80716 17.1519H27.9183C28.3349 17.1519 28.659 16.8278 28.659 16.4111C28.659 15.9945 28.3349 15.6704 27.9183 15.6704H6.80716C6.3905 15.6704 6.06642 15.9945 6.06642 16.4111C6.02013 16.7815 6.3905 17.1519 6.80716 17.1519Z" />
<path d="M21.8958 21.6431H6.80324C6.38657 21.6431 6.0625 21.9671 6.0625 22.3838C6.0625 22.8005 6.38657 23.1245 6.80324 23.1245H21.8958C22.3125 23.1245 22.6366 22.8005 22.6366 22.3838C22.6366 22.0134 22.3125 21.6431 21.8958 21.6431Z" />
<path d="M21.8958 27.7075H6.80324C6.38657 27.7075 6.0625 28.0316 6.0625 28.4483C6.0625 28.8649 6.38657 29.189 6.80324 29.189H21.8958C22.3125 29.189 22.6366 28.8649 22.6366 28.4483C22.6366 28.0316 22.3125 27.7075 21.8958 27.7075Z" />
<path d="M21.8958 33.7271H6.80324C6.38657 33.7271 6.0625 34.0511 6.0625 34.4678C6.0625 34.8845 6.38657 35.2085 6.80324 35.2085H21.8958C22.3125 35.2085 22.6366 34.8845 22.6366 34.4678C22.6366 34.0511 22.3125 33.7271 21.8958 33.7271Z" />
</g>
<defs>
<clipPath id="clip0_2_422">
<rect width="50" height="50" transform="translate(0 0.531738)"/>
</clipPath>
</defs>
</svg>
