<svg width="60" height="51" viewBox="0 0 60 51" xmlns="http://www.w3.org/2000/svg">
<g clip-path="url(#clip0_2_380)">
<path d="M48.8566 0.904852C48.6443 0.55837 48.1932 0.425108 47.8482 0.638328L40.7894 4.71615L34.3674 2.34408C32.8018 1.75773 31.0769 1.91765 29.6439 2.74387L20.011 8.31423L19.9579 8.28758L11.4661 3.35688C11.2803 3.25027 11.068 3.22362 10.8823 3.27692C10.6965 3.33022 10.5107 3.46349 10.4311 3.65005L0.0817189 22.9997C-0.10404 23.3462 0.00210811 23.7993 0.373625 24.0125L5.41564 26.9176L2.81502 31.4219C2.23121 32.4347 2.07199 33.6341 2.39043 34.7535C2.68234 35.8995 3.42537 36.8324 4.43378 37.4187C5.36257 37.9518 6.47712 38.1383 7.5386 37.9251L8.46739 37.7385L8.7593 38.6447C9.10428 39.6842 9.79424 40.537 10.723 41.0967C11.6518 41.6298 12.7664 41.8164 13.8278 41.6031L14.7566 41.4166L15.0485 42.3228C15.3935 43.3622 16.0835 44.2151 17.0123 44.7748C17.9411 45.3078 19.0556 45.4944 20.1171 45.2812L21.0459 45.0946L21.3378 46.0008C21.6828 47.0402 22.3727 47.8931 23.3015 48.4528C25.398 49.6788 28.0782 48.9326 29.2989 46.827L30.0685 45.4944L37.8172 49.9987C38.8256 50.585 40.0198 50.7449 41.1344 50.4251C42.2754 50.1319 43.2042 49.3857 43.788 48.3729C44.0534 47.8931 44.2392 47.3601 44.3188 46.8004L44.5045 45.601L45.6722 45.9208C47.5828 46.4272 49.5996 45.5744 50.5815 43.8686C50.9265 43.2822 51.1122 42.6426 51.1653 41.9496L51.2449 40.8835L52.3064 40.9368C53.9782 41.0168 55.5174 40.1906 56.34 38.7513C57.1627 37.3121 57.1096 35.553 56.2073 34.1405L55.6235 33.2343L56.4992 32.6479C57.0565 32.2748 57.5076 31.7684 57.8526 31.182C59.0202 29.1298 58.4099 26.5445 56.4196 25.2652L55.1724 24.4656L59.7102 20.7609C60.0021 20.5211 60.0552 20.1213 59.8694 19.8014L48.8566 0.904852ZM9.13081 35.0733C8.73276 35.7396 8.12241 36.2193 7.37937 36.4326C7.14054 36.4859 6.87517 36.5392 6.63634 36.5392C6.13214 36.5392 5.62794 36.4059 5.20335 36.1394C4.53992 35.7396 4.06226 35.1266 3.84996 34.3803C3.63767 33.6341 3.74382 32.8345 4.14187 32.1682L7.16708 26.891C7.96319 25.5051 9.74116 25.0253 11.1211 25.8249C12.501 26.6245 12.9787 28.4102 12.1826 29.7961L9.13081 35.0733ZM15.4201 38.7247C15.022 39.391 14.4117 39.8707 13.6686 40.084C13.4298 40.1639 13.1644 40.1906 12.9256 40.1906C12.4214 40.1906 11.9172 40.0573 11.4926 39.7908C10.8292 39.391 10.3515 38.778 10.1392 38.0317C9.92692 37.2854 10.0331 36.4859 10.4311 35.8196L14.677 28.4368C15.4731 27.0509 17.2511 26.5712 18.631 27.3707C20.011 28.1703 20.4886 29.956 19.6925 31.3419L15.4201 38.7247ZM21.7359 42.3761C21.3378 43.0424 20.7275 43.5221 19.9844 43.7353C19.7456 43.7886 19.4802 43.8419 19.2414 43.8419C18.7372 43.8419 18.233 43.7087 17.8084 43.4422C16.4285 42.6426 15.9508 40.8569 16.7469 39.4709L19.7721 34.1938C20.5682 32.8078 22.3462 32.3281 23.7261 33.1277C25.106 33.9272 25.5837 35.7129 24.7876 37.0989L21.7359 42.3761ZM29.8562 42.8825L28.0251 46.0541C27.6271 46.7204 27.0167 47.2002 26.2737 47.4134C26.0348 47.4933 25.7695 47.52 25.5306 47.52C25.0264 47.52 24.5222 47.3867 24.0976 47.1202C23.4342 46.7204 22.9566 46.1074 22.7443 45.3611C22.532 44.6149 22.6381 43.8153 23.0362 43.149L24.8672 39.9773C25.2653 39.311 25.8756 38.8313 26.6187 38.6181C27.3617 38.4048 28.1578 38.5115 28.8212 38.9112C29.4846 39.311 29.9623 39.924 30.1746 40.6703C30.3338 41.4166 30.2542 42.2161 29.8562 42.8825ZM55.5704 26.4379C56.2339 26.8377 56.7115 27.4507 56.9238 28.197C57.1361 28.9432 57.03 29.7428 56.6319 30.4091C56.2339 31.0754 55.6235 31.5552 54.8805 31.7684C54.1375 31.9816 53.3413 31.875 52.6779 31.4752L45.3272 27.2108C44.9822 26.9976 44.5045 27.1309 44.3188 27.4773C44.1065 27.8238 44.2392 28.3036 44.5842 28.4901L54.0313 33.9805C54.6947 34.3803 55.1724 34.9933 55.3847 35.7396C55.597 36.4859 55.4908 37.2854 55.0928 37.9518C54.6947 38.6181 54.0844 39.0978 53.3413 39.311C52.5983 39.5243 51.8022 39.4176 51.1388 39.0179L41.6916 33.5275C41.3466 33.3142 40.869 33.4475 40.6567 33.794C40.4444 34.1405 40.5771 34.6202 40.9221 34.8068L48.2728 39.0712C48.9362 39.4709 49.4139 40.084 49.6262 40.8302C49.8385 41.5765 49.7323 42.3761 49.3343 43.0424C48.9362 43.7087 48.3259 44.1884 47.5828 44.4016C46.8398 44.6149 46.0437 44.5083 45.3803 44.1085L38.0295 39.8441C37.8438 39.7375 37.658 39.7108 37.4723 39.7641C37.2865 39.8174 37.1273 39.9507 37.0211 40.1106C36.8088 40.4571 36.9415 40.9368 37.2865 41.1234L41.4793 43.5488C42.8593 44.3483 43.3369 46.1341 42.5408 47.52C42.1428 48.1863 41.5324 48.666 40.7894 48.8793C40.5505 48.9326 40.2852 48.9859 40.0463 48.9859C39.5421 48.9859 39.0379 48.8526 38.6133 48.5861L30.9176 44.1085L31.3422 43.2023C32.2976 41.1501 31.528 38.6447 29.5643 37.5253C28.9804 37.1788 28.3436 36.9923 27.6536 36.939L26.5921 36.859L26.6452 35.7929C26.7248 34.1138 25.9022 32.568 24.4692 31.7417C23.8853 31.3953 23.2485 31.2087 22.5585 31.1554L21.497 31.0754L21.5501 30.0093C21.6297 28.3302 20.8071 26.7844 19.3741 25.9582C17.9411 25.1319 16.1896 25.1852 14.7832 26.0914L13.8809 26.6778L13.2971 25.7982C12.9256 25.2385 12.4214 24.7854 11.8376 24.439C10.1923 23.4795 8.12241 23.6927 6.71595 24.972L6.13214 25.5051L1.75355 23.053L1.80662 22.9731L11.3865 5.03598L18.5249 9.19376L16.8531 10.1533C15.8447 10.7396 15.1016 11.6991 14.8097 12.8185C14.5178 13.9646 14.6505 15.1373 15.2608 16.1501C15.8447 17.1628 16.8 17.9091 17.9145 18.2023C19.0556 18.4955 20.2233 18.3622 21.2317 17.7492L30.9176 12.1255L30.9707 12.1522L55.5704 26.4379ZM53.819 23.6927L53.7659 23.666L31.3157 10.633C31.0769 10.4997 30.8115 10.4997 30.5727 10.633L20.5152 16.4699C19.8783 16.843 19.0822 16.9496 18.3126 16.7631C17.5696 16.5498 16.9327 16.0701 16.5612 15.4038C16.1896 14.7641 16.0835 13.9646 16.2692 13.1916C16.4815 12.4187 16.9592 11.7791 17.6226 11.4059L30.3604 4.02319C31.4218 3.41018 32.6956 3.30357 33.8367 3.73001L40.6036 6.23534C40.8159 6.3153 41.0547 6.28865 41.2405 6.18204L47.9543 2.29078L58.3037 19.988L53.819 23.6927Z" />
</g>
<defs>
<clipPath id="clip0_2_380">
<rect width="60" height="50" transform="translate(0 0.531738)"/>
</clipPath>
</defs>
</svg>
