<?xml version="1.0" encoding="utf-8"?><svg viewBox="0 0 60 51" xmlns="http://www.w3.org/2000/svg" xmlns:xlink="http://www.w3.org/1999/xlink"><style>:root>svg{display:none}:root>svg:target{display:block}</style><svg viewBox="0 0 50 51" id="1" xmlns="http://www.w3.org/2000/svg"><path d="M20.836 11.63a4.15 4.15 0 004.167 4.168 4.15 4.15 0 004.166-4.168 4.15 4.15 0 00-4.166-4.169 4.15 4.15 0 00-4.167 4.168zm6.944 0a2.786 2.786 0 01-2.777 2.778 2.786 2.786 0 01-2.778-2.778 2.786 2.786 0 012.778-2.78 2.786 2.786 0 012.777 2.78z"/><path d="M49.306 20.429c.37 0 .694-.324.694-.695v-4.631c0-.232-.139-.463-.324-.602L27.037 1.07c-1.296-.742-2.731-.695-4.028 0L.37 14.5c-.231.139-.37.37-.37.602v4.631c0 .37.324.695.694.695H4.63v21.767h-.463A4.15 4.15 0 000 46.364v3.473c0 .37.324.695.694.695h48.612c.37 0 .694-.324.694-.695v-3.473a4.15 4.15 0 00-4.167-4.168h-.463V20.429h3.936zm-3.473 23.156a2.786 2.786 0 012.778 2.779v2.778H1.39v-2.778a2.786 2.786 0 012.778-2.78h41.666zM6.02 42.195V20.43h5.555v21.767H6.02zm6.944 0V20.43h7.87v21.767h-7.87zm9.26 0V20.43h5.555v21.767h-5.556zm6.944 0V20.43h7.87v21.767h-7.87zm9.259 0V20.43h5.555v21.767h-5.555zM1.389 19.04v-3.566L23.657 2.228c.88-.463 1.806-.463 2.686 0L48.61 15.473v3.566H1.39z"/></svg><svg viewBox="0 0 50 51" id="2" xmlns="http://www.w3.org/2000/svg"><g clip-path="url(#bclip0_2_386)"><path d="M38.128 39.976c-.347 0-.608.278-.608.648v7.315c0 .74-.565 1.343-1.26 1.343H2.476c-.695 0-1.26-.602-1.26-1.343V3.171c0-.741.565-1.343 1.26-1.343h33.786c.694 0 1.259.602 1.259 1.343v10.787c0 .37.26.648.608.648.347 0 .608-.278.608-.648V3.17c0-1.436-1.086-2.64-2.475-2.64H2.475C1.085.532 0 1.69 0 3.172v44.722c0 1.435 1.086 2.639 2.475 2.639h33.786c1.346 0 2.475-1.158 2.475-2.64v-7.268c0-.37-.26-.648-.608-.648z"/><path d="M19.364 5.856c-4.517 0-8.208 3.935-8.208 8.75 0 2.454.912 4.676 2.562 6.389l.087.092c1.52 1.482 3.518 2.315 5.559 2.315 2.04 0 4.038-.833 5.558-2.315l.087-.092c1.694-1.667 2.606-3.935 2.606-6.389-.044-4.815-3.735-8.75-8.251-8.75zm4.212 14.722c-1.216.972-2.692 1.528-4.212 1.528-1.52 0-2.997-.51-4.213-1.528l-.217-.185.13-.278c.87-1.666 2.52-2.685 4.3-2.685 1.78 0 3.43 1.018 4.299 2.685l.13.278-.217.185zm-6.036-6.342v-.649c0-1.064.825-1.944 1.824-1.944.998 0 1.824.88 1.824 1.944v.649c0 1.064-.825 1.944-1.824 1.944-.999 0-1.824-.88-1.824-1.944zm7.209 5.231l-.261-.417a6.443 6.443 0 00-2.605-2.314l-.391-.186.26-.324c.434-.555.652-1.25.652-1.99v-.649c0-1.759-1.347-3.24-3.04-3.24-1.65 0-3.04 1.435-3.04 3.24v.649c0 .74.217 1.388.651 1.99l.26.324-.39.186a6.443 6.443 0 00-2.605 2.314l-.261.417-.26-.417c-.913-1.296-1.347-2.824-1.347-4.444 0-4.12 3.127-7.454 6.992-7.454s6.991 3.334 6.991 7.454c0 1.62-.477 3.148-1.39 4.444l-.216.417zM24.36 43.864h-4.994c-.348 0-.608.278-.608.648s.26.648.608.648h4.994c.347 0 .608-.278.608-.648 0-.324-.26-.648-.608-.648zM24.36 38.356H11.202c-.348 0-.608.278-.608.648s.26.648.608.648h13.201c.348 0 .608-.278.608-.648a.65.65 0 00-.651-.648zM24.36 32.801H11.202c-.348 0-.608.278-.608.648s.26.649.608.649h13.201c.348 0 .608-.278.608-.649-.043-.37-.304-.648-.651-.648zM7.644 27.43a.54.54 0 00-.434-.185.54.54 0 00-.435.185.616.616 0 00-.173.463c0 .185.043.324.173.463.217.231.652.231.869 0a.615.615 0 00.173-.463c.044-.14-.043-.324-.173-.463zM7.644 32.986a.54.54 0 00-.434-.185c-.174 0-.304.093-.435.185a.615.615 0 00-.173.463c0 .186.086.325.173.463.217.232.652.232.869 0a.616.616 0 00.173-.463.615.615 0 00-.173-.462zM7.21 38.356a.54.54 0 00-.435.185.616.616 0 00-.173.463c0 .185.043.324.173.463.087.093.26.185.435.185a.54.54 0 00.434-.185.616.616 0 00.173-.463c0-.185-.086-.324-.173-.463s-.26-.185-.434-.185zM24.36 27.245H11.202c-.348 0-.608.277-.608.648 0 .37.26.648.608.648h13.201c.348 0 .608-.278.608-.648a.65.65 0 00-.651-.648zM46.769 15.717c-.261-.972-.826-1.805-1.65-2.315-.565-.324-1.173-.509-1.781-.509-.304 0-.608.046-.912.139a3.651 3.651 0 00-2.171 1.76L28.53 36.364c-.044.093-.087.185-.087.232l-.825 7.87a.635.635 0 00.304.648.56.56 0 00.651-.046l5.95-4.676c.086-.046.13-.139.173-.185l11.725-21.62c.478-.88.608-1.899.348-2.87zM33.046 39.93l-4.039 3.194v-.092l.565-5.324.043.046 3.43 2.176zm10.596-18.843l-9.64 17.87h-.044l-4.082-2.5v-.045l9.684-17.87h.043l4.039 2.545zm1.737-3.148l-1.086 1.991h-.043l-4.082-2.5 1.085-1.99c.304-.602.825-1.02 1.434-1.158a2.179 2.179 0 011.78.231c.565.325.955.88 1.086 1.528.217.648.13 1.343-.174 1.898z"/></g><defs><clipPath id="bclip0_2_386"><path transform="translate(0 .532)" d="M0 0h50v50H0z"/></clipPath></defs></svg><svg viewBox="0 0 50 51" id="3" xmlns="http://www.w3.org/2000/svg"><g clip-path="url(#cclip0_2_408)"><path d="M25 .532c-13.78 0-25 11.22-25 25s11.22 25 25 25 25-11.22 25-25-11.194-25-25-25zm0 48.72c-13.06 0-23.694-10.634-23.694-23.694 0-13.06 10.634-23.72 23.694-23.72 13.06 0 23.694 10.634 23.694 23.694 0 13.06-10.608 23.72-23.694 23.72z"/><path d="M25.002 22.653a.66.66 0 00-.666.666v13.3a.66.66 0 00.666.666.66.66 0 00.667-.666V23.293a.655.655 0 00-.667-.64zM25.003 14.551c-.773 0-1.386.613-1.386 1.386 0 .773.613 1.386 1.386 1.386.746 0 1.386-.613 1.386-1.386 0-.773-.613-1.386-1.386-1.386z"/></g><defs><clipPath id="cclip0_2_408"><path transform="translate(0 .532)" d="M0 0h50v50H0z"/></clipPath></defs></svg><svg viewBox="0 0 54 51" id="4" xmlns="http://www.w3.org/2000/svg"><g clip-path="url(#dclip0_2_416)"><path d="M53.278 49.6a14.507 14.507 0 01-.133-2.025v-.187c-.08-6.952-.906-14.997-2.532-15.556-1.919-.693-3.811-1.492-5.277-2.131-.213-.08-.427-.293-.64-.506-.16-.16-.346-.32-.533-.453-.346-.24-.666-.4-.986-.453-.613-.107-.666-.213-.773-.613-.24-1.012-.373-1.865-.213-2.69 0-.027.026-.054.026-.08v-.027c0-.027.027-.053.027-.08l.027-.026.053-.054c.027-.026.053-.026.107-.053l.08-.027c.026 0 .08-.026.106-.026.453-.16 1.146-.32 1.786-.453.8-.187 1.52-.373 2.052-.533l.08-.026.24-.08c.427-.16.826-.4 1.013-.88.186-.479.053-.985-.107-1.385-.906-2.45-1.412-4.582-1.572-6.686-.027-.453-.054-.932-.08-1.332-.054-1.385-.134-2.85-.693-4.262l-.027-.053c-.4-1.066-1.492-3.863-4.93-4.369-.827-.186-1.866-.133-3.199.187h-.48c-5.277-.72-7.196 3.383-7.516 4.235-.56 1.412-.613 2.85-.666 4.262v.053c-.027.427-.027.88-.08 1.28-.186 2.103-.666 4.235-1.572 6.685-.16.427-.293.906-.107 1.386.187.479.613.692 1.013.878.533.214 1.44.427 2.319.64l.053.026c.746.187 1.52.347 1.946.507.186.053.213.106.266.373.187.852.053 1.678-.213 2.69-.107.373-.16.506-.773.613-.32.053-.64.186-.986.453-.187.133-.347.293-.533.452l-.027.027c-.213.213-.426.4-.64.506l-.56.24c-4.077-1.732-5.303-3.197-5.303-6.207 0-.266.026-.48.08-.666.08-.24.24-.426.453-.692.506-.64 1.2-1.519 1.6-3.89.052-.24.052-.24.292-.372.747-.4 1.386-.933 1.573-3.463v-.054c0-1.118-.347-1.784-.666-2.157.106-.666.346-2.238.453-3.517.133-1.491-.374-3.782-1.786-5.514C23.827 1.491 21.535.532 18.55.532h-.16c-2.985 0-5.277.959-6.823 2.877C10.155 5.14 9.648 7.43 9.781 8.923c.107 1.278.347 2.85.454 3.516-.32.373-.667 1.039-.667 2.158v.053c.16 2.504.8 3.037 1.573 3.436.24.134.24.134.293.373.4 2.344 1.093 3.25 1.599 3.89.213.266.347.452.453.692.053.16.08.4.08.666 0 3.17-1.333 4.608-5.997 6.5C2.692 32.178 0 34.362 0 36.334v14.198h53.438l-.16-.933zm-17.75-.64H1.413V36.333c0-.053 0-.133.026-.213.293-1.012 2.452-2.77 6.61-4.448 2.692-1.092 4.291-2.051 5.33-3.197.587-.666 1.013-1.385 1.253-2.21a9.076 9.076 0 00.347-2.531c0-.4-.054-.746-.134-1.066a.203.203 0 00-.053-.133c-.16-.506-.426-.826-.693-1.145-.053-.054-.08-.107-.133-.16-.293-.373-.613-.853-.88-1.759a7.579 7.579 0 01-.266-1.225c-.027-.106-.053-.24-.08-.346-.213-.746-.666-.986-.986-1.146-.213-.106-.427-.213-.56-.772-.107-.32-.16-.773-.213-1.359 0-.266.027-.506.08-.692.08-.293.213-.4.24-.426l.48-.214-.107-.639c0-.026-.373-2.184-.507-3.81-.026-.425 0-.985.107-1.518.027-.133.053-.266.08-.372.027-.08.053-.16.08-.267.24-.826.64-1.545 1.146-2.184 1.28-1.572 3.198-2.371 5.757-2.371h.667c2.318.08 4.104.88 5.276 2.344.507.64.907 1.359 1.146 2.185.347 1.092.294 1.917.267 2.157-.107 1.385-.4 3.143-.48 3.676v.107l-.133.64.506.212c.054.027.16.16.24.426.053.187.08.427.08.693-.053.586-.106 1.039-.213 1.385-.16.533-.347.64-.586.773-.08.053-.16.08-.267.16a1.72 1.72 0 00-.72 1.012 6.987 6.987 0 00-.08.346c-.08.453-.16.88-.266 1.226a5.053 5.053 0 01-.88 1.758c-.053.053-.08.106-.133.16-.266.346-.533.665-.693 1.145.053 0 .053.053.027.107-.107.32-.133.665-.133 1.092 0 .985.106 1.811.346 2.53.267.826.666 1.572 1.253 2.211.693.773 1.652 1.465 2.985 2.131h-.027l.533.267c.48.24 1.013.48 1.626.719l.08.027c.027 0 .053.026.053.026l.054.027c1.386.56 2.532 1.119 3.491 1.678 1.92 1.092 2.932 2.105 3.145 2.77.027.08.027.134.027.214V48.96zm1.412 0V36.333c0-1.837-2.238-3.782-6.45-5.647.107-.08.214-.186.32-.293l.027-.026c.133-.134.266-.24.4-.347.133-.106.293-.186.373-.186.826-.133 1.626-.426 1.945-1.732.267-1.065.48-2.237.214-3.463-.107-.48-.347-1.172-1.2-1.491-.48-.187-1.252-.373-2.079-.56h-.053c-.826-.186-1.706-.4-2.159-.586a.45.45 0 00-.133-.053c0-.053.027-.08.053-.16.933-2.557 1.493-4.901 1.68-7.112.026-.453.053-.906.08-1.412.053-1.306.106-2.557.56-3.703 0-.027.026-.053.026-.106.32-.746 1.599-3.224 4.904-3.277.346 0 .746.027 1.146.08h.746l.08-.027c1.146-.293 2.026-.346 2.665-.213h.054c2.638.4 3.438 2.45 3.837 3.437l.027.053c.453 1.145.507 2.397.56 3.702v.054c.027.453.027.905.08 1.358 0 .134.026.267.026.427.214 2.104.747 4.288 1.626 6.712.027.054.027.107.054.16-.054.027-.08.027-.134.053-.053.027-.133.054-.186.08l-.054.027c-.506.16-1.252.346-1.945.506-.666.16-1.386.32-1.892.48l-.08.026c-.027 0-.08.027-.107.027h-.027c-.026 0-.053.027-.053.027-.133.053-.24.106-.346.186-.107.053-.16.133-.187.16l-.027.026-.133.134c-.053.08-.133.16-.186.24 0 .026-.027.026-.027.053l-.054.08a2.582 2.582 0 00-.133.293c-.026.08-.053.186-.08.32-.266 1.225-.053 2.397.213 3.462.32 1.306 1.12 1.625 1.946 1.732.08.026.24.08.373.186.134.107.267.213.427.347.266.24.613.559 1.04.745 1.465.64 3.384 1.466 5.356 2.158.667.24 1.466 6.473 1.546 14.038v.267c0 .373 0 .852.054 1.358H36.94v.027z"/></g><defs><clipPath id="dclip0_2_416"><path transform="translate(0 .532)" d="M0 0h53.438v50H0z"/></clipPath></defs></svg><svg viewBox="0 0 50 51" id="5" xmlns="http://www.w3.org/2000/svg"><g clip-path="url(#eclip0_2_422)"><path d="M48.889 16.504a3.744 3.744 0 00-5.324 0l-5.834 5.833V8.587c0-1.018-.37-1.944-1.11-2.685l-4.26-4.26a3.708 3.708 0 00-2.685-1.11H3.75C1.713.532 0 2.245 0 4.282v42.453c0 2.084 1.713 3.75 3.75 3.75h30.185c2.084 0 3.75-1.712 3.75-3.75V33.032l11.158-11.158a3.82 3.82 0 001.11-2.685c.047-1.018-.323-1.944-1.064-2.685zM28.657 2.06h.834c.324 0 1.11 0 1.805.648l4.26 4.259c.694.694.648 1.435.648 1.805v.834h-7.547V2.06zm7.547 44.722a2.272 2.272 0 01-2.269 2.268H3.75a2.272 2.272 0 01-2.269-2.268v-42.5A2.272 2.272 0 013.75 2.013h23.38V10.3c0 .417.324.741.74.741h8.287v12.778l-.231.231-4.445 4.445-2.13 2.13c-.092.092-.138.184-.184.277l-2.13 6.389c-.093.278 0 .556.185.787.185.185.51.278.787.185l6.435-2.083c.093-.046.232-.093.278-.185l1.482-1.482v12.269zm-4.12-16.62l3.194 3.194-1.482 1.481-4.814 1.62 1.62-4.814 1.481-1.482zm4.259 2.129l-3.195-3.194 8.333-8.334 3.195 3.195-8.333 8.333zM47.824 20.81l-2.083 2.083-3.195-3.195 2.084-2.083c.88-.88 2.314-.88 3.194 0 .88.833.88 2.315 0 3.195z"/><path d="M6.807 17.152h21.111c.417 0 .741-.324.741-.74a.731.731 0 00-.74-.742H6.806a.731.731 0 00-.74.741c-.047.37.324.74.74.74zM21.896 21.643H6.803a.731.731 0 00-.74.74c0 .418.324.742.74.742h15.093c.416 0 .74-.325.74-.741 0-.37-.323-.74-.74-.74zM21.896 27.707H6.803a.731.731 0 00-.74.741c0 .417.324.741.74.741h15.093c.416 0 .74-.324.74-.74a.731.731 0 00-.74-.742zM21.896 33.727H6.803a.731.731 0 00-.74.74c0 .418.324.742.74.742h15.093c.416 0 .74-.325.74-.741a.731.731 0 00-.74-.74z"/></g><defs><clipPath id="eclip0_2_422"><path transform="translate(0 .532)" d="M0 0h50v50H0z"/></clipPath></defs></svg><svg viewBox="0 0 60 51" id="6" xmlns="http://www.w3.org/2000/svg"><g clip-path="url(#fclip0_2_380)"><path d="M48.857.905c-.213-.347-.664-.48-1.009-.267L40.79 4.716l-6.422-2.372a5.546 5.546 0 00-4.723.4l-9.633 5.57-.053-.026-8.492-4.931a.76.76 0 00-.584-.08.703.703 0 00-.45.373L.081 23c-.186.346-.08.8.292 1.012l5.042 2.906-2.601 4.504a4.309 4.309 0 00-.425 3.332c.292 1.146 1.035 2.078 2.044 2.665.929.533 2.043.72 3.105.506l.928-.186.292.906a4.495 4.495 0 001.964 2.452c.929.533 2.043.72 3.105.506l.929-.186.292.906a4.496 4.496 0 001.963 2.452c.93.533 2.044.72 3.105.506l.929-.186.292.906a4.495 4.495 0 001.963 2.452c2.097 1.226 4.777.48 5.998-1.626l.77-1.333L37.816 50a4.258 4.258 0 003.317.426c1.141-.293 2.07-1.04 2.654-2.052.265-.48.451-1.013.53-1.573l.187-1.199 1.167.32a4.383 4.383 0 004.91-2.052 4.38 4.38 0 00.583-1.92l.08-1.066 1.061.054c1.672.08 3.211-.746 4.034-2.186.823-1.439.77-3.198-.133-4.61l-.584-.907.876-.586a4.47 4.47 0 001.354-1.466c1.167-2.052.557-4.637-1.433-5.917l-1.248-.8 4.538-3.704a.742.742 0 00.16-.96L48.856.905zM9.13 35.073a2.984 2.984 0 01-1.752 1.36 3.57 3.57 0 01-.743.106 2.705 2.705 0 01-1.433-.4A2.993 2.993 0 013.85 34.38a2.811 2.811 0 01.292-2.212l3.025-5.277a2.895 2.895 0 013.954-1.066 2.922 2.922 0 011.062 3.971L9.13 35.073zm6.29 3.652a2.984 2.984 0 01-1.752 1.359 2.39 2.39 0 01-.743.107 2.705 2.705 0 01-1.433-.4 2.993 2.993 0 01-1.354-1.76 2.812 2.812 0 01.292-2.211l4.246-7.383a2.895 2.895 0 013.954-1.066 2.922 2.922 0 011.061 3.97l-4.272 7.384zm6.315 3.651a2.984 2.984 0 01-1.752 1.36 3.57 3.57 0 01-.743.106 2.705 2.705 0 01-1.433-.4 2.922 2.922 0 01-1.061-3.971l3.025-5.277a2.895 2.895 0 013.954-1.066 2.922 2.922 0 011.062 3.97l-3.052 5.278zm8.12.507l-1.83 3.171a2.984 2.984 0 01-1.752 1.36 2.39 2.39 0 01-.743.106 2.705 2.705 0 01-1.433-.4 2.993 2.993 0 01-1.354-1.759 2.811 2.811 0 01.292-2.212l1.831-3.172a2.984 2.984 0 011.752-1.359 2.778 2.778 0 012.202.293 2.993 2.993 0 011.354 1.76c.159.746.08 1.545-.319 2.212zM55.57 26.438a2.993 2.993 0 011.354 1.759 2.811 2.811 0 01-.292 2.212 2.984 2.984 0 01-1.752 1.36 2.778 2.778 0 01-2.202-.294l-7.35-4.264a.732.732 0 00-1.01.266.739.739 0 00.266 1.013l9.447 5.49a2.993 2.993 0 011.354 1.76 2.812 2.812 0 01-.292 2.212 2.984 2.984 0 01-1.752 1.359 2.778 2.778 0 01-2.202-.293l-9.447-5.49c-.345-.214-.823-.08-1.035.266a.739.739 0 00.265 1.013l7.35 4.264a2.993 2.993 0 011.354 1.76 2.812 2.812 0 01-.292 2.211 2.984 2.984 0 01-1.751 1.36 2.778 2.778 0 01-2.203-.294l-7.35-4.264a.696.696 0 00-.558-.08.836.836 0 00-.45.347.739.739 0 00.264 1.012l4.193 2.426a2.922 2.922 0 011.062 3.971 2.984 2.984 0 01-1.752 1.36 3.57 3.57 0 01-.743.106 2.705 2.705 0 01-1.433-.4l-7.695-4.477.424-.907c.956-2.052.186-4.557-1.778-5.677a4.334 4.334 0 00-1.91-.586l-1.062-.08.053-1.066c.08-1.68-.743-3.225-2.176-4.051a4.335 4.335 0 00-1.91-.587l-1.062-.08.053-1.066c.08-1.679-.743-3.225-2.176-4.05-1.433-.827-3.184-.774-4.59.132l-.903.587-.584-.88a4.464 4.464 0 00-1.46-1.359 4.348 4.348 0 00-5.121.533l-.584.533-4.378-2.452.053-.08 9.58-17.937 7.138 4.158-1.672.96a4.378 4.378 0 00-2.043 2.665c-.292 1.146-.16 2.318.45 3.331a4.365 4.365 0 002.655 2.052c1.14.293 2.308.16 3.317-.453l9.686-5.623.053.026 24.6 14.286zm-1.751-2.745l-.053-.027-22.45-13.033a.74.74 0 00-.743 0L20.515 16.47c-.637.373-1.433.48-2.202.293a2.907 2.907 0 01-1.752-1.36c-.371-.639-.477-1.438-.292-2.211.213-.773.69-1.413 1.354-1.786L30.36 4.023a4.087 4.087 0 013.477-.293l6.767 2.505c.212.08.45.054.636-.053l6.714-3.891 10.35 17.697-4.485 3.705z"/></g><defs><clipPath id="fclip0_2_380"><path transform="translate(0 .532)" d="M0 0h60v50H0z"/></clipPath></defs></svg></svg>


<svg width="50" height="51" viewBox="0 0 50 51" xmlns="http://www.w3.org/2000/svg">
<g clip-path="url(#clip0_2_422)">
<path d="M48.8889 16.504C47.4074 15.0225 45.0463 15.0225 43.5648 16.504L37.7315 22.3373V8.58729C37.7315 7.56878 37.3611 6.64285 36.6204 5.90211L32.3611 1.64285C31.6204 0.902109 30.6944 0.531738 29.6759 0.531738H3.75C1.71296 0.531738 0 2.2447 0 4.28174V46.7354C0 48.8188 1.71296 50.4854 3.75 50.4854H33.9352C36.0185 50.4854 37.6852 48.7725 37.6852 46.7354V33.0317L48.8426 21.8743C49.537 21.1799 49.9537 20.2077 49.9537 19.1891C50 18.1706 49.6296 17.2447 48.8889 16.504ZM28.6574 2.05952H29.4907C29.8148 2.05952 30.6019 2.05952 31.2963 2.70766L35.5556 6.96692C36.25 7.66137 36.2037 8.40211 36.2037 8.77248V9.60581H28.6574V2.05952ZM36.2037 46.7817C36.2037 48.0317 35.1852 49.0503 33.9352 49.0503H3.75C2.5 49.0503 1.48148 48.0317 1.48148 46.7817V4.28174C1.48148 3.03174 2.5 2.01322 3.75 2.01322H27.1296V10.3003C27.1296 10.7169 27.4537 11.041 27.8704 11.041H36.1574V23.8188L35.9259 24.0503C32.7315 27.2447 31.7593 28.2169 31.4815 28.4947L29.3519 30.6243C29.2593 30.7169 29.213 30.8095 29.1667 30.9021L27.037 37.291C26.9444 37.5688 27.037 37.8466 27.2222 38.078C27.4074 38.2632 27.7315 38.3558 28.0093 38.2632L34.4444 36.1799C34.537 36.1336 34.6759 36.0873 34.7222 35.9947L36.2037 34.5132V46.7817ZM32.0833 30.1614L35.2778 33.3558L33.7963 34.8373L28.9815 36.4577L30.6019 31.6428L32.0833 30.1614ZM36.3426 32.291L33.1481 29.0966L41.4815 20.7632L44.6759 23.9577L36.3426 32.291ZM47.8241 20.8095L45.7407 22.8928L42.5463 19.6984L44.6296 17.6151C45.5093 16.7354 46.9444 16.7354 47.8241 17.6151C48.7037 18.4484 48.7037 19.9299 47.8241 20.8095Z" />
<path d="M6.80716 17.1519H27.9183C28.3349 17.1519 28.659 16.8278 28.659 16.4111C28.659 15.9945 28.3349 15.6704 27.9183 15.6704H6.80716C6.3905 15.6704 6.06642 15.9945 6.06642 16.4111C6.02013 16.7815 6.3905 17.1519 6.80716 17.1519Z" />
<path d="M21.8958 21.6431H6.80324C6.38657 21.6431 6.0625 21.9671 6.0625 22.3838C6.0625 22.8005 6.38657 23.1245 6.80324 23.1245H21.8958C22.3125 23.1245 22.6366 22.8005 22.6366 22.3838C22.6366 22.0134 22.3125 21.6431 21.8958 21.6431Z" />
<path d="M21.8958 27.7075H6.80324C6.38657 27.7075 6.0625 28.0316 6.0625 28.4483C6.0625 28.8649 6.38657 29.189 6.80324 29.189H21.8958C22.3125 29.189 22.6366 28.8649 22.6366 28.4483C22.6366 28.0316 22.3125 27.7075 21.8958 27.7075Z" />
<path d="M21.8958 33.7271H6.80324C6.38657 33.7271 6.0625 34.0511 6.0625 34.4678C6.0625 34.8845 6.38657 35.2085 6.80324 35.2085H21.8958C22.3125 35.2085 22.6366 34.8845 22.6366 34.4678C22.6366 34.0511 22.3125 33.7271 21.8958 33.7271Z" />
</g>
<defs>
<clipPath id="clip0_2_422">
<rect width="50" height="50" transform="translate(0 0.531738)"/>
</clipPath>
</defs>
</svg>
<svg width="60" height="51" viewBox="0 0 60 51" xmlns="http://www.w3.org/2000/svg">
<g clip-path="url(#clip0_2_380)">
<path d="M48.8566 0.904852C48.6443 0.55837 48.1932 0.425108 47.8482 0.638328L40.7894 4.71615L34.3674 2.34408C32.8018 1.75773 31.0769 1.91765 29.6439 2.74387L20.011 8.31423L19.9579 8.28758L11.4661 3.35688C11.2803 3.25027 11.068 3.22362 10.8823 3.27692C10.6965 3.33022 10.5107 3.46349 10.4311 3.65005L0.0817189 22.9997C-0.10404 23.3462 0.00210811 23.7993 0.373625 24.0125L5.41564 26.9176L2.81502 31.4219C2.23121 32.4347 2.07199 33.6341 2.39043 34.7535C2.68234 35.8995 3.42537 36.8324 4.43378 37.4187C5.36257 37.9518 6.47712 38.1383 7.5386 37.9251L8.46739 37.7385L8.7593 38.6447C9.10428 39.6842 9.79424 40.537 10.723 41.0967C11.6518 41.6298 12.7664 41.8164 13.8278 41.6031L14.7566 41.4166L15.0485 42.3228C15.3935 43.3622 16.0835 44.2151 17.0123 44.7748C17.9411 45.3078 19.0556 45.4944 20.1171 45.2812L21.0459 45.0946L21.3378 46.0008C21.6828 47.0402 22.3727 47.8931 23.3015 48.4528C25.398 49.6788 28.0782 48.9326 29.2989 46.827L30.0685 45.4944L37.8172 49.9987C38.8256 50.585 40.0198 50.7449 41.1344 50.4251C42.2754 50.1319 43.2042 49.3857 43.788 48.3729C44.0534 47.8931 44.2392 47.3601 44.3188 46.8004L44.5045 45.601L45.6722 45.9208C47.5828 46.4272 49.5996 45.5744 50.5815 43.8686C50.9265 43.2822 51.1122 42.6426 51.1653 41.9496L51.2449 40.8835L52.3064 40.9368C53.9782 41.0168 55.5174 40.1906 56.34 38.7513C57.1627 37.3121 57.1096 35.553 56.2073 34.1405L55.6235 33.2343L56.4992 32.6479C57.0565 32.2748 57.5076 31.7684 57.8526 31.182C59.0202 29.1298 58.4099 26.5445 56.4196 25.2652L55.1724 24.4656L59.7102 20.7609C60.0021 20.5211 60.0552 20.1213 59.8694 19.8014L48.8566 0.904852ZM9.13081 35.0733C8.73276 35.7396 8.12241 36.2193 7.37937 36.4326C7.14054 36.4859 6.87517 36.5392 6.63634 36.5392C6.13214 36.5392 5.62794 36.4059 5.20335 36.1394C4.53992 35.7396 4.06226 35.1266 3.84996 34.3803C3.63767 33.6341 3.74382 32.8345 4.14187 32.1682L7.16708 26.891C7.96319 25.5051 9.74116 25.0253 11.1211 25.8249C12.501 26.6245 12.9787 28.4102 12.1826 29.7961L9.13081 35.0733ZM15.4201 38.7247C15.022 39.391 14.4117 39.8707 13.6686 40.084C13.4298 40.1639 13.1644 40.1906 12.9256 40.1906C12.4214 40.1906 11.9172 40.0573 11.4926 39.7908C10.8292 39.391 10.3515 38.778 10.1392 38.0317C9.92692 37.2854 10.0331 36.4859 10.4311 35.8196L14.677 28.4368C15.4731 27.0509 17.2511 26.5712 18.631 27.3707C20.011 28.1703 20.4886 29.956 19.6925 31.3419L15.4201 38.7247ZM21.7359 42.3761C21.3378 43.0424 20.7275 43.5221 19.9844 43.7353C19.7456 43.7886 19.4802 43.8419 19.2414 43.8419C18.7372 43.8419 18.233 43.7087 17.8084 43.4422C16.4285 42.6426 15.9508 40.8569 16.7469 39.4709L19.7721 34.1938C20.5682 32.8078 22.3462 32.3281 23.7261 33.1277C25.106 33.9272 25.5837 35.7129 24.7876 37.0989L21.7359 42.3761ZM29.8562 42.8825L28.0251 46.0541C27.6271 46.7204 27.0167 47.2002 26.2737 47.4134C26.0348 47.4933 25.7695 47.52 25.5306 47.52C25.0264 47.52 24.5222 47.3867 24.0976 47.1202C23.4342 46.7204 22.9566 46.1074 22.7443 45.3611C22.532 44.6149 22.6381 43.8153 23.0362 43.149L24.8672 39.9773C25.2653 39.311 25.8756 38.8313 26.6187 38.6181C27.3617 38.4048 28.1578 38.5115 28.8212 38.9112C29.4846 39.311 29.9623 39.924 30.1746 40.6703C30.3338 41.4166 30.2542 42.2161 29.8562 42.8825ZM55.5704 26.4379C56.2339 26.8377 56.7115 27.4507 56.9238 28.197C57.1361 28.9432 57.03 29.7428 56.6319 30.4091C56.2339 31.0754 55.6235 31.5552 54.8805 31.7684C54.1375 31.9816 53.3413 31.875 52.6779 31.4752L45.3272 27.2108C44.9822 26.9976 44.5045 27.1309 44.3188 27.4773C44.1065 27.8238 44.2392 28.3036 44.5842 28.4901L54.0313 33.9805C54.6947 34.3803 55.1724 34.9933 55.3847 35.7396C55.597 36.4859 55.4908 37.2854 55.0928 37.9518C54.6947 38.6181 54.0844 39.0978 53.3413 39.311C52.5983 39.5243 51.8022 39.4176 51.1388 39.0179L41.6916 33.5275C41.3466 33.3142 40.869 33.4475 40.6567 33.794C40.4444 34.1405 40.5771 34.6202 40.9221 34.8068L48.2728 39.0712C48.9362 39.4709 49.4139 40.084 49.6262 40.8302C49.8385 41.5765 49.7323 42.3761 49.3343 43.0424C48.9362 43.7087 48.3259 44.1884 47.5828 44.4016C46.8398 44.6149 46.0437 44.5083 45.3803 44.1085L38.0295 39.8441C37.8438 39.7375 37.658 39.7108 37.4723 39.7641C37.2865 39.8174 37.1273 39.9507 37.0211 40.1106C36.8088 40.4571 36.9415 40.9368 37.2865 41.1234L41.4793 43.5488C42.8593 44.3483 43.3369 46.1341 42.5408 47.52C42.1428 48.1863 41.5324 48.666 40.7894 48.8793C40.5505 48.9326 40.2852 48.9859 40.0463 48.9859C39.5421 48.9859 39.0379 48.8526 38.6133 48.5861L30.9176 44.1085L31.3422 43.2023C32.2976 41.1501 31.528 38.6447 29.5643 37.5253C28.9804 37.1788 28.3436 36.9923 27.6536 36.939L26.5921 36.859L26.6452 35.7929C26.7248 34.1138 25.9022 32.568 24.4692 31.7417C23.8853 31.3953 23.2485 31.2087 22.5585 31.1554L21.497 31.0754L21.5501 30.0093C21.6297 28.3302 20.8071 26.7844 19.3741 25.9582C17.9411 25.1319 16.1896 25.1852 14.7832 26.0914L13.8809 26.6778L13.2971 25.7982C12.9256 25.2385 12.4214 24.7854 11.8376 24.439C10.1923 23.4795 8.12241 23.6927 6.71595 24.972L6.13214 25.5051L1.75355 23.053L1.80662 22.9731L11.3865 5.03598L18.5249 9.19376L16.8531 10.1533C15.8447 10.7396 15.1016 11.6991 14.8097 12.8185C14.5178 13.9646 14.6505 15.1373 15.2608 16.1501C15.8447 17.1628 16.8 17.9091 17.9145 18.2023C19.0556 18.4955 20.2233 18.3622 21.2317 17.7492L30.9176 12.1255L30.9707 12.1522L55.5704 26.4379ZM53.819 23.6927L53.7659 23.666L31.3157 10.633C31.0769 10.4997 30.8115 10.4997 30.5727 10.633L20.5152 16.4699C19.8783 16.843 19.0822 16.9496 18.3126 16.7631C17.5696 16.5498 16.9327 16.0701 16.5612 15.4038C16.1896 14.7641 16.0835 13.9646 16.2692 13.1916C16.4815 12.4187 16.9592 11.7791 17.6226 11.4059L30.3604 4.02319C31.4218 3.41018 32.6956 3.30357 33.8367 3.73001L40.6036 6.23534C40.8159 6.3153 41.0547 6.28865 41.2405 6.18204L47.9543 2.29078L58.3037 19.988L53.819 23.6927Z" />
</g>
<defs>
<clipPath id="clip0_2_380">
<rect width="60" height="50" transform="translate(0 0.531738)"/>
</clipPath>
</defs>
</svg>
